<?xml version="1.0" standalone="no"?>
<!DOCTYPE svg PUBLIC "-//W3C//DTD SVG 20010904//EN"
 "http://www.w3.org/TR/2001/REC-SVG-20010904/DTD/svg10.dtd">
<svg version="1.0" xmlns="http://www.w3.org/2000/svg"
 width="16.000000pt" height="16.000000pt" viewBox="0 0 16.000000 16.000000"
 preserveAspectRatio="xMidYMid meet">

<g transform="translate(0.000000,16.000000) scale(0.100000,-0.100000)"
fill="#000000" stroke="none">
<path d="M35 120 c-3 -5 1 -10 9 -10 9 0 16 -4 16 -10 0 -5 -4 -10 -8 -10 -5
0 -9 -13 -9 -30 0 -18 6 -30 14 -30 7 0 13 11 13 25 0 17 6 25 18 25 14 0 15
2 2 10 -17 11 -6 25 25 33 11 3 -1 5 -27 6 -26 0 -50 -3 -53 -9z"/>
</g>
</svg>
